<svg xmlns="http://www.w3.org/2000/svg" xmlns:xlink="http://www.w3.org/1999/xlink" xml:space="preserve" width="87mm" height="18mm" version="1.1" style="shape-rendering:geometricPrecision; text-rendering:geometricPrecision; image-rendering:optimizeQuality; fill-rule:evenodd; clip-rule:evenodd" viewBox="0 0 8700 1800" transform="matrix(1, 0, 0, 1, 0, 0)">
 <defs fill="#000000">
  <style type="text/css">
   <![CDATA[
    .str0 {stroke:#9D9E9E;stroke-width:35.28}
    .fil3 {fill:none}
    .fil6 {fill:#000000}
    .fil0 {fill:#000000}
    .fil2 {fill:#2B2A29}
    .fil5 {fill:#E50B7D}
    .fil1 {fill:#E31E24}
    .fil8 {fill:#FDEC06}
    .fil7 {fill:#1E9BD7}
    .fil4 {fill:#1b191c}
   ]]>
  </style>
 </defs>
 <g id="Ebene_x0020_1">
  <metadata id="CorelCorpID_0Corel-Layer" fill="#000000"/>
  <g id="_404564864">

   <g>
    <path class="fil1" d="M1028 397c82,-9 160,-8 232,2 26,4 47,17 61,39 14,21 18,45 12,70l-63 238c-11,39 -45,65 -85,65l-194 1c-40,0 -74,26 -84,65l-16 57c-1,4 0,9 3,12 3,4 7,6 12,6l290 -1c5,0 9,2 12,6 2,4 3,8 2,13l-75 282c-15,58 -61,98 -121,107 -9,1 -17,2 -26,3 -83,9 -161,8 -234,-2 -25,-4 -46,-17 -60,-39 -15,-22 -19,-46 -12,-71l198 -742c15,-58 61,-99 120,-108 10,-1 19,-2 28,-3zm532 123c88,72 139,169 134,282 -7,163 -128,321 -309,428 -16,10 -34,8 -49,-2 -14,-11 -20,-29 -16,-47l170 -638c4,-15 14,-26 29,-31 14,-4 29,-2 41,8zm-1105 718c-88,-72 -138,-169 -133,-281 7,-163 128,-320 308,-428 15,-9 34,-8 48,3 15,11 21,29 16,46l-169 637c-4,15 -14,26 -29,31 -14,4 -29,2 -41,-8z" fill="#000000"/>
    <path class="fil2" d="M4840 1159l55 0c16,0 29,-13 29,-28l0 -223 0 -7 7 0 235 0 7 0 0 7 0 223c0,15 13,28 29,28l55 0c16,0 29,-13 29,-28l0 -508c0,-16 -13,-29 -29,-29l-55 0c-16,0 -29,13 -29,29l0 193 0 7 -7 0 -235 0 -7 0 0 -7 0 -193c0,-16 -13,-29 -29,-29l-55 0c-16,0 -29,13 -29,29l0 508c0,15 13,28 29,28zm-1816 -421c0,-1 0,-1 0,-1 -5,-15 -10,-28 -17,-41 -7,-12 -15,-24 -24,-34 -9,-11 -19,-20 -30,-29l0 0c-11,-9 -22,-16 -35,-23 -12,-6 -25,-12 -39,-16l0 0c-14,-5 -28,-8 -43,-10 -15,-2 -30,-3 -45,-3l0 -1c-18,1 -35,2 -51,4 -16,3 -31,6 -46,11 -14,5 -28,11 -41,18 -12,7 -24,15 -36,24l0 0c-11,9 -21,19 -31,29 -9,11 -18,23 -26,35 -7,12 -14,25 -20,39l0 0c-6,14 -11,28 -15,43 -4,15 -8,32 -10,47 -2,16 -3,32 -3,49 0,17 1,33 3,48 2,16 5,31 10,46 4,15 8,29 14,42 6,14 13,26 21,39 8,12 16,23 26,34 9,10 20,20 31,29l0 0c11,9 23,17 36,24 13,6 26,12 41,17 14,5 30,9 46,11 58,9 135,0 185,-25 77,-38 111,-94 111,-116l0 -136c0,-16 -13,-29 -29,-29l-172 0c-16,0 -29,13 -29,29l0 20c0,14 10,26 24,29l98 0 0 89c0,0 -14,29 -54,45 -21,9 -47,13 -74,13 -71,0 -114,-19 -141,-72 -19,-27 -29,-72 -32,-107 -1,-10 -3,-20 -3,-30 0,-10 1,-20 2,-31 8,-92 49,-183 162,-183 48,0 99,32 121,73 4,6 7,12 9,18 4,12 15,19 27,19l52 0c9,0 17,-4 23,-12 5,-8 7,-16 4,-25zm-1069 421l56 0c16,0 28,-13 28,-28l0 -223 0 -7 8 0 234 0 7 0 0 7 0 223c0,15 13,28 29,28l56 0c16,0 28,-13 28,-28l0 -508c0,-16 -12,-29 -28,-29l-56 0c-16,0 -29,13 -29,29l0 193 0 7 -7 0 -234 0 -8 0 0 -7 0 -193c0,-16 -12,-29 -28,-29l-56 0c-16,0 -29,13 -29,29l0 508c0,15 13,28 29,28zm1359 0l56 0c15,0 28,-13 28,-28l0 -452 0 -7 8 0 137 0c16,0 29,-13 29,-29l0 -20c0,-16 -13,-29 -29,-29l-403 0c-15,0 -28,13 -28,29l0 20c0,16 13,29 28,29l138 0 7 0 0 7 0 452c0,15 13,28 29,28zm417 0l339 0c16,0 29,-13 29,-28l0 -21c0,-15 -13,-28 -29,-28l-277 0 -7 0 0 -8 0 -166 0 -7 7 0 245 0c16,0 29,-13 29,-29l0 -20c0,-16 -13,-29 -29,-29l-245 0 -7 0 0 -7 0 -137 0 -7 7 0 270 0c16,0 29,-13 29,-29l0 -20c0,-16 -13,-29 -29,-29l-332 0c-32,0 -58,26 -58,58l0 450c0,32 26,57 58,57zm960 -421c0,-1 0,-1 0,-1 -5,-15 -10,-28 -17,-41 -7,-12 -15,-24 -24,-34 -9,-11 -19,-20 -30,-29l0 0c-11,-9 -23,-16 -35,-23 -12,-6 -25,-12 -39,-16l0 0c-14,-5 -28,-8 -43,-10 -15,-2 -30,-3 -46,-3l0 -1c-17,1 -34,2 -50,4 -16,3 -31,6 -46,11 -14,5 -28,11 -41,18 -13,7 -25,15 -36,24l0 0c-11,9 -21,19 -31,29 -9,11 -18,23 -26,35 -7,12 -14,25 -20,39l0 0c-6,14 -11,28 -15,43 -4,15 -7,31 -9,47 -2,16 -3,32 -3,49 0,17 1,33 3,48 2,16 5,31 9,46 4,15 9,29 15,42 6,14 13,26 20,39 8,12 17,23 26,34 10,10 20,20 31,29l0 0c11,9 23,17 36,24 13,6 27,12 41,17 15,5 30,9 46,11 16,3 33,4 50,4 18,0 35,-1 51,-4 15,-3 31,-7 45,-12l0 0c14,-5 28,-12 40,-20 13,-7 25,-16 35,-26 11,-10 21,-21 30,-33 8,-12 16,-26 22,-40l1 0c6,-14 11,-29 16,-45 0,-2 1,-5 1,-7 2,-9 0,-18 -5,-25 -6,-7 -14,-10 -23,-10l-51 0c-10,0 -20,4 -24,13 -3,5 -5,12 -7,18 -12,39 -22,57 -55,80 -24,17 -51,27 -81,27 -112,0 -162,-102 -162,-212 0,-111 53,-212 165,-212 48,0 99,32 121,73 3,6 6,12 9,18 4,12 14,19 27,19l51 0c10,0 18,-4 24,-12 5,-8 7,-16 4,-25z" fill="#000000"/>
    <line class="fil3 str0" x1="5756" y1="419" x2="5756" y2="1340" fill="#000000"/>
    <g>
     <path class="fil4" d="M6987 684c-202,0 -194,-352 -6,-352 202,0 191,352 6,352zm-227 -179c0,207 225,334 372,187 153,-153 41,-432 -145,-432 -130,0 -227,127 -227,245z" fill="#000000"/>
     <path class="fil4" d="M8217 588l0 -250c118,9 112,241 0,250zm-71 -304l0 466 71 0c0,-126 -4,-83 36,-102 8,32 34,68 42,102l84 0c-6,-25 -56,-109 -72,-132 102,-68 117,-352 -119,-352 -29,0 -42,-4 -42,18z" fill="#000000"/>
     <path class="fil4" d="M6271 588l0 -250c49,11 83,42 83,101l0 48c0,50 -32,100 -83,101zm-72 162l72 0 0 -90c53,-1 84,-32 112,-61 14,-15 25,-35 33,-57 50,-129 -38,-270 -133,-270l-84 0 0 478z" fill="#000000"/>
     <path class="fil4" d="M7829 284l0 448c0,14 4,18 18,18l179 0 0 -72 -125 0 0 -84 119 0 0 -71 -119 0 0 -185 119 0c0,-93 29,-72 -173,-72 -14,0 -18,4 -18,18z" fill="#000000"/>
     <path class="fil4" d="M7525 284c0,63 -11,54 71,54l0 394c0,25 21,18 72,18l0 -412 72 0c0,-94 32,-72 -197,-72 -14,0 -18,4 -18,18z" fill="#000000"/>
     <path class="fil4" d="M7262 284l0 54 72 0 0 412 71 0 0 -412c82,0 72,9 72,-54 0,-14 -4,-18 -18,-18l-179 0c-14,0 -18,4 -18,18z" fill="#000000"/>
     <polygon class="fil4" points="6521,750 6707,750 6707,678 6593,678 6593,272 6521,272 " fill="#000000"/>
     <polygon class="fil5" points="6945,853 7626,853 7626,1540 6945,1540 " fill="#000000"/>
     <path class="fil6" d="M7146 1108c0,-42 89,-30 137,-30 49,0 36,36 36,84l-1 185c0,32 -2,35 30,36 19,1 84,-14 84,41 0,14 -7,30 -24,30l-244 0c-38,0 -22,-51 -18,-65 34,-9 65,-6 107,-6 13,-56 6,-176 6,-239l-101 0c-4,-17 -12,-25 -12,-36zm89 -114c0,-86 96,-62 96,6 0,51 -96,65 -96,-6z" fill="#000000"/>
     <polygon class="fil7" points="6202,853 6883,853 6883,1540 6202,1540 " fill="#000000"/>
     <path class="fil6" d="M6522 1077c84,7 96,4 96,42 0,56 -96,0 -96,42l0 227c72,0 96,-10 96,47 0,14 -4,18 -18,18l-221 0c-29,0 -23,-52 4,-62 16,-5 80,16 80,-21 0,-306 10,-227 -60,-227 -27,0 -36,-19 -36,-42 0,-34 54,-30 90,-30 17,-35 12,-60 41,-90 82,-83 227,-29 227,54 0,61 -80,96 -93,10 -1,-11 -1,-29 -5,-36 -15,-27 -105,-22 -105,68z" fill="#000000"/>
     <polygon class="fil8" points="7683,853 8364,853 8364,1540 7683,1540 " fill="#000000"/>
     <path class="fil6" d="M8043 1034c30,-35 37,-24 131,-24 36,0 36,16 36,36 0,41 -32,-6 -80,57l-63 80c7,28 24,35 39,57l39 56c43,46 120,6 83,84 -27,7 -173,24 -173,-24 0,-26 9,-25 30,-35 -8,-33 -36,-68 -60,-84 -19,12 -48,56 -60,78 30,44 36,14 24,65 -28,7 -155,23 -174,-17 -3,-6 -3,-10 -5,-19 48,-72 39,39 141,-110 14,-21 25,-26 38,-45 -6,-26 -13,-31 -27,-50 -42,-58 -39,-64 -84,-72 -95,-16 -33,-63 -20,-63 39,0 59,4 89,6 110,5 55,46 42,66 12,25 12,38 36,53 26,-7 42,-31 54,-53 -17,-18 -23,-17 -36,-42z" fill="#000000"/>
    </g>
   </g>
  </g>
 </g>
</svg>