<?xml version="1.0" encoding="UTF-8"?>
<svg id="Ebene_1" xmlns="http://www.w3.org/2000/svg" version="1.1" viewBox="0 0 160 160">
  <!-- Generator: Adobe Illustrator 29.7.0, SVG Export Plug-In . SVG Version: 2.1.1 Build 138)  -->
  <path d="M72.61,53.42c-2.1,4.33-2.37,8.87-3.15,13.55l-33.26,10.03c2-9.51,1.57-22.26,4.53-31.29,1.92-5.87,6.69-8.41,12.58-9.21,19.72-2.69,39.74-1.87,60.13-5.33,14.75-2.5,29.81-6.32,43.51-12.27-.73,4.18-.97,11.87-3.43,15.33-2.11,2.97-11.38,6.76-15,8.22-20.89,8.42-43.67,9.38-65.92,10.97Z"/>
  <path d="M144.98,57.85c-4.35,10.7-14.12,21.51-24.37,27.02-14.05,7.55-24.34,2.42-39.05,2.49-8,.03-17.84,1.07-25.82,2.12-17.93,2.34-35.42,7.19-52.7,12.24l8.91-5.76c23.96-13.79,50.39-24.95,78.47-26.39,5.38-.27,11.88.72,17.3.31,4.24-.33,9.44-1.78,13-4.17l-6.88-1.76c10.62-.69,21.2-2.18,31.13-6.09Z"/>
  <path d="M64.97,94.49c-.82,9.06-1.32,19.08-3.02,27.97-2.89,15.13-22.39,16.91-35.07,18.64l5.79-41.55c.95-1.53,28.47-5.01,32.3-5.06Z"/>
</svg>